<svg xmlns="http://www.w3.org/2000/svg" viewBox="0 0 125 125">
  <g stroke-width="3.8">
    <circle cx="63" cy="40" r="20" fill="#60ad51" stroke="#389826"/>
    <circle cx="36" cy="85" r="20" fill="#d5635c" stroke="#cb3c33"/>
    <circle cx="89" cy="85" r="20" fill="#aa79c1" stroke="#9558b2"/>
  </g>
  <g fill="white">
    <!-- The characters in each circle correspond to the start of the word "Julia"
         in three of the most used writing systems around the world:
         https://en.wikipedia.org/wiki/List_of_writing_systems#List_of_writing_scripts_by_adoption -->
    <!-- (چ), U+0686, Arabic letter "tcheh" -->
    <path d="M 61.6,30.8 Q 61.2,30.8 60.5,30.8 Q 59.7,30.7 59.4,30.7 Q 58.1,30.7 56.6,30.9 Q 55.5,31.1 53.8,31.4 Q 54.6,29.2 55.2,28.6 Q 56.7,27.1 60.2,27.1 Q 61.5,27.1 65.4,27.7 Q 67.3,27.9 68.6,27.9 Q 69.2,27.9 70.3,27.8 Q 71.4,27.6 71.9,27.6 L 71.2,30.9 Q 67.1,31.7 64.2,32.5 Q 59.9,33.9 57.5,35.8 Q 54.5,38.2 54.5,41.4 Q 54.5,45.6 58.9,47.7 Q 62.7,49.6 69.1,49.6 L 72.7,49.6 L 72.8,49.8 L 68.4,52.9 L 67.2,52.9 Q 63.0,52.9 60.2,52.1 Q 56.9,51.2 55.2,49.1 Q 53.2,46.7 53.2,42.8 Q 53.2,39.6 54.8,36.9 Q 55.9,35.0 58.2,33.2 Q 58.9,32.6 61.6,30.8 Z M 68.9,37.4 L 67.4,40.2 L 64.2,38.6 L 65.7,35.7 L 68.9,37.4 Z M 68.2,42.6 L 66.8,45.5 L 63.6,43.8 L 65.1,40.9 L 68.2,42.6 Z M 64.4,39.2 L 63.0,42.0 L 59.7,40.3 L 61.3,37.5 L 64.4,39.2 Z"/>
    <!-- (吉), U+5409, Mandarin (Pinyin) "jí" -->
    <path d="M 25.8 86.5 C 25.9 87.4 26 88.2 26 89.3 L 26 95.2 C 26 96.5 25.9 97.5 25.8 98.5 L 29.2 98.5 29.2 97.2 42.8 97.2 42.8 98.5 46.3 98.5 C 46.2 97.6 46.1 96.6 46.1 95.2 L 46.1 89.3 C 46.1 88.1 46.1 87.4 46.2 86.5 45.5 86.6 44.9 86.7 43.7 86.7 L 28.3 86.7 C 27.1 86.7 26.5 86.6 25.8 86.5 Z  M 29.2 89.6 L 42.8 89.6 42.8 94.2 29.2 94.2 29.2 89.6 Z  M 37.5 74.7 L 37.5 73.7 C 37.5 72.5 37.5 71.8 37.7 71 L 33.9 71 C 34 71.7 34.1 72.5 34.1 73.7 L 34.1 74.7 26.4 74.7 C 24.9 74.7 23.7 74.6 22.8 74.5 L 22.8 77.8 C 23.7 77.7 24.7 77.6 26.3 77.6 L 34.1 77.6 34.1 81.3 27.7 81.3 C 26.2 81.3 25.2 81.2 24.5 81.1 L 24.5 84.3 C 25.3 84.3 26.4 84.2 27.7 84.2 L 44.3 84.2 C 45.6 84.2 46.7 84.3 47.5 84.3 L 47.5 81.1 C 46.8 81.2 45.8 81.3 44.3 81.3 L 37.5 81.3 37.5 77.6 45.7 77.6 C 47.1 77.6 48.3 77.7 49.2 77.8 L 49.2 74.5 C 48.3 74.6 47.3 74.7 45.7 74.7 L 37.5 74.7 Z"/>
    <!-- (ज), U+091C, Devanagari letter "ja" -->
    <path d="M 103.2,78.6 L 103.2,78.1 C 102.4,77.3 101.8,76.3 101.1,75.3 L 74.8,75.3 L 74.8,75.8 C 75.6,76.6 76.2,77.6 76.9,78.6 L 94.6,78.6 L 94.6,82.7 L 85.2,82.7 L 84.7,83.6 C 86.0,85.4 87.2,87.3 87.2,89.0 C 87.2,90.4 86.4,91.0 85.4,91.0 C 82.8,91.0 80.4,87.4 78.9,82.9 L 77.0,83.8 C 79.1,89.9 82.3,94.4 86.4,94.4 C 88.7,94.4 90.4,92.9 90.4,90.4 C 90.3,88.9 89.4,87.3 88.8,86.1 L 94.8,86.1 C 94.8,94.6 94.6,96.5 94.6,96.5 C 95.8,97.1 96.8,97.9 97.8,98.7 L 98.4,98.7 L 98.4,78.6 Z"/>
  </g>
</svg>
